<?xml version="1.0" encoding="UTF-8" standalone="no"?>
<!-- Created with Inkscape (http://www.inkscape.org/) -->

<svg
   width="309.19263mm"
   height="239.01233mm"
   viewBox="0 0 309.19263 239.01233"
   version="1.1"
   id="svg5"
   inkscape:version="1.1.2 (b8e25be833, 2022-02-05)"
   sodipodi:docname="bird1.svg"
   xmlns:inkscape="http://www.inkscape.org/namespaces/inkscape"
   xmlns:sodipodi="http://sodipodi.sourceforge.net/DTD/sodipodi-0.dtd"
   xmlns="http://www.w3.org/2000/svg"
   xmlns:svg="http://www.w3.org/2000/svg">
  <sodipodi:namedview
     id="namedview7"
     pagecolor="#ffffff"
     bordercolor="#666666"
     borderopacity="1.0"
     inkscape:pageshadow="2"
     inkscape:pageopacity="0.0"
     inkscape:pagecheckerboard="0"
     inkscape:document-units="mm"
     showgrid="false"
     fit-margin-top="0"
     fit-margin-left="0"
     fit-margin-right="0"
     fit-margin-bottom="0"
     inkscape:zoom="0.51843089"
     inkscape:cx="623.99831"
     inkscape:cy="489.93994"
     inkscape:window-width="1920"
     inkscape:window-height="1009"
     inkscape:window-x="-8"
     inkscape:window-y="-8"
     inkscape:window-maximized="1"
     inkscape:current-layer="group-R5" />
  <defs
     id="defs2" />
  <g
     inkscape:label="Layer 1"
     inkscape:groupmode="layer"
     id="layer1"
     transform="translate(55.806742,-18.600573)">
    <g
       id="group-R5"
       transform="matrix(0.26458333,0,0,0.26458333,-1671.5215,-197.60161)">
      <path
         id="path6"
         d="m 6924.0076,1492.2291 c 17.9246,-13.5429 13.3159,49.8849 -0.1695,13.3184 l 0.4101,-7.3498 z m -39.384,1.32 c -44.1341,27.6361 -78.0532,95.17 -136.8211,83.6405 -29.8071,-20.103 -77.6352,-100.295 -8.0344,-81.2638 46.0191,-5.2894 88.3732,-23.1459 130.9316,-26.4573 6.3298,6.6603 14.0869,13.9882 13.9239,24.0806 z m -102.5093,120.2134 c -18.9219,24.702 -5.5707,-25.5346 0,0 z m -42.948,23.1333 c -2.8536,28.7612 -18.6642,-6.4331 0,0 z m -15.8267,11.48 c 5.4734,-13.1272 9.5877,16.8346 0,0 z m 527.8214,-599.96 c -44.179,-19.0585 -58.6276,-62.21782 -49.5791,-107.54787 1.3972,-37.20841 -7.5654,-23.79158 -17.1044,-61.79716 -14.9612,-38.76534 -57.0433,-54.46028 -107.8112,-60.00545 -11.9362,7.13404 -80.5965,-9.79808 -90.8046,3.93211 -32.634,-0.3134 -90.6098,26.24838 -96.6781,40.44167 15.1926,-0.40051 -50.3301,24.41782 -15.6146,20.73666 -17.9757,2.66913 -32.854,20.74805 -24.428,19.54491 -79.312,46.79705 -163.4671,92.90951 -215.7556,171.76583 -25.9715,41.8621 -62.7912,74.2115 -103.6469,101.0495 -41.8372,31.9698 -67.7848,77.1038 -101.7242,115.9198 -19.0139,58.1394 -81.0606,87.128 -130.656,115.9957 -46.2613,25.0621 -101.3163,53.539 -123.2384,97.665 -22.0205,11.8319 -103.7347,62.2712 -36.0196,39.2474 23.6377,-7.3173 54.3642,-24.9759 18.6071,0.3894 23.9443,20.4562 75.1868,-35.1061 109.3841,-45.3063 60.4417,-29.6085 120.1697,-66.3285 189.156,-69.6879 49.3522,-14.1041 110.4344,1.484 145.1131,16.4734 36.4013,-5.7712 74.4307,48.9098 96.8875,91.6483 21.6839,36.9966 41.082,73.8541 -3.5993,102.1196 -14.4051,21.8938 -89.9579,75.2426 -28.5598,74.0287 20.4918,-18.038 42.6188,-87.6988 75.7664,-46.6362 23.1635,-4.4857 19.8709,-17.2721 46.3836,-0.3338 26.0884,-6.0808 19.8034,-15.1343 -4.6151,-7.9519 -22.7926,-15.2616 -7.8864,-41.683 15.9081,-39.7647 -11.5553,-33.9598 36.6315,-44.1244 55.2615,-74.3159 29.2792,-23.4714 48.4714,-43.5316 66.4688,-10.1841 21.2811,23.9243 54.2726,-25.4256 14.92,-6.8934 36.9061,-8.1146 -6.9365,-57.1449 26.5787,-62.16 32.8694,-44.8633 97.5201,-42.9958 134.2467,-78.6635 37.9822,-43.6685 -28.9038,-27.9087 -42.684,-0.7152 -48.0398,21.5918 -92.7068,60.3008 -144.9614,57.2721 44.5216,-8.7346 62.8671,-21.6079 94.8712,-62.9186 40.2406,-31.8179 67.6162,-75.0841 76.1775,-108.9193 18.7772,-35.8425 26.5836,-82.2116 30.113,-109.0022 0.5795,-56.3169 51.9779,-133.994 114.501,-104.3043 24.851,-0.5084 71.8491,47.3973 39.7242,1.3833 l -4.3095,-4.4175 z"
         style="fill:#fcefd4;fill-opacity:1;fill-rule:nonzero;stroke:none;stroke-width:0.133333"
         inkscape:export-filename="C:\Users\Xavier\bird1.png"
         inkscape:export-xdpi="96"
         inkscape:export-ydpi="96" />
    </g>
  </g>
</svg>
