<?xml version="1.0" encoding="UTF-8" standalone="no"?>
<!-- Created with Inkscape (http://www.inkscape.org/) -->

<svg
   width="244.18515mm"
   height="241.05551mm"
   viewBox="0 0 244.18515 241.05552"
   version="1.1"
   id="svg5"
   xmlns="http://www.w3.org/2000/svg"
   xmlns:svg="http://www.w3.org/2000/svg">
  <defs
     id="defs2" />
  <g
     id="layer1"
     transform="translate(23.329332,-170.07985)">
    <g
       id="group-R5"
       transform="matrix(0.26458333,0,0,0.26458333,-1671.5215,-197.60161)">
      <path
         id="path20"
         d="m 6335.0329,2299.7144 c 39.6796,4.8707 100.9388,-7.1036 115.0544,-47.4322 12.7805,-59.462 73.2394,-25.1052 117.7196,-37.3839 44.2846,-3.9461 79.3867,-33.7954 114.3611,-55.9938 58.0684,-12.1437 93.2117,-62.7714 139.221,-92.3068 62.8776,-35.2859 95.2189,-115.524 170.2595,-129.8484 43.1513,-8.4211 88.3215,-0.5262 130.7043,-13.7549 17.9214,6.2772 48.5575,3.643 14.7467,-7.3066 51.3703,-4.3762 -45.0493,-18.2528 -48.2978,-45.8938 -36.6786,-31.3119 -79.5067,2.3903 -115.0355,15.0846 -65.6388,11.6072 -94.9259,94.7782 -164.9601,92.5605 -46.2764,0.6702 -84.5129,-31.8359 -92.9542,-76.9624 -24.0228,-50.8973 -37.498,-105.4709 -50.3808,-160.0308 -17.7657,-38.8353 -11.7154,-81.0877 -15.5116,-122.2503 -7.9793,-68.9776 -15.4456,-138.7326 -8.4364,-207.8436 -14.1009,-32.7977 -34.0587,41.4139 -25.4627,60.1956 -9.6952,49.4081 -9.6922,-32.8726 -18.5241,-49.6232 -6.0119,-29.9957 -29.0101,-49.0581 -27.0262,-6.4593 -9.4705,44.8647 -16.4099,-55.5878 -29.0379,1.2846 -9.725,29.97 17.1959,84.894 1.3436,99.2429 -16.8019,-16.7956 -44.2041,-83.6903 -61.6459,-58.2187 -5.2081,27.7061 47.8105,106.3517 -3.3785,61.6358 -44.7184,-29.9677 -22.6655,23.6415 -24.2385,36.1457 -23.5048,20.4393 -11.6031,44.0196 -30.5002,66.5327 15.1361,19.7455 -15.7107,33.8334 -0.8732,58.0264 -41.135,7.2985 -51.2508,-76.973 -48.0579,-114.0612 7.454,-24.4297 -15.1932,-48.7088 -16.918,-12.5112 -6.2132,22.8637 8.7232,81.0497 -10.0911,29.5871 0.741,-16.5609 -11.7966,-93.2175 -24.78,-45.2404 -2.4263,21.0761 18.0109,93.0374 -6.7287,38.3321 -7.8631,-21.6313 -23.5447,-77.886 -30.7477,-26.1386 -9.5948,22.946 42.3022,69.4978 17.2968,68.3388 -18.198,-17.8149 -32.4512,-46.0522 -50.84,-59.6533 -19.0393,21.8942 48.4381,94.3761 2.4843,60.0045 -44.3737,-40.3926 -0.5228,36.9364 -14.644,26.5853 -20.8257,11.8682 4.4308,40.1273 -9.7654,57.2552 10.2196,41.0821 28.5067,77.5145 47.1807,115.6371 10.8391,41.0455 41.1417,74.4799 63.371,111.3445 18.8455,38.4182 47.5019,72.2608 76.2534,101.56 8.49,30.8552 56.7828,51.1858 59.7898,77.596 -41.7738,14.912 -67.0096,48.4387 -88.3223,85.5955 -24.2879,-6.2223 -68.5669,28.503 -58.8084,37.0364 32.7794,-7.0625 14.4771,-6.8057 8.5442,14.1411 26.4544,-22.5748 68.3446,-55.7893 103.8767,-27.2356 -16.425,-14.5577 -95.5506,16.6276 -59.3867,25.6133 -9.0945,17.4038 -42.8875,18.8279 -30.22,36.8667 -20.2785,2.378 16.7142,6.2884 -16.6333,19.9466 z"
         style="fill:#fcefd4;fill-opacity:1;fill-rule:nonzero;stroke:none;stroke-width:0.133333" />
    </g>
  </g>
</svg>
