<?xml version="1.0" encoding="UTF-8" standalone="no"?>
<!-- Created with Inkscape (http://www.inkscape.org/) -->

<svg
   width="269mm"
   height="269.42691mm"
   viewBox="0 0 269 269.42692"
   version="1.1"
   id="svg5"
   xmlns="http://www.w3.org/2000/svg"
   xmlns:svg="http://www.w3.org/2000/svg">
  <defs
     id="defs2" />
  <g
     id="layer1"
     transform="translate(19.943094,-182.60334)">
    <g
       id="group-R5"
       transform="matrix(0.26458333,0,0,0.26458333,-1671.5215,-197.60161)">
      <path
         id="path8"
         d="m 6919.4977,1556.9818 c 13.2798,-24.7534 63.9972,-30.9995 37.355,7.5183 -14.5303,27.3607 -19.7579,23.7039 6.4594,20.8914 10.3457,24.3551 -33.6466,51.7563 -4.7449,56.478 -5.0224,39.9131 -1.6134,78.2992 -2.5127,119.2417 -1.7723,48.6988 -7.4926,95.5348 -16.3215,144.4522 -12.0568,37.8148 10.4225,83.5516 3.0579,120.1398 8.1843,33.6701 -31.8007,18.452 -11.6779,48.7069 -14.8778,15.9729 -5.9567,23.6292 -9.4161,47.9403 -35.8209,-1.5351 5.4746,52.5745 -38.5056,53.538 14.0357,45.7187 56.8086,-33.5247 83.1108,-45.1649 21.9004,-29.2389 74.2056,-34.2808 73.7559,12.7249 51.4112,-18.6659 49.8325,48.6776 87.2967,60.2717 18.9478,27.4413 6.2917,61.5659 38.6624,77.038 5.1806,31.7944 -0.5289,58.5941 9.9579,88.6641 -9.3205,14.1107 11.4053,49.837 -25.477,51.4262 10.3032,30.8609 -34.18,24.3803 -51.2617,34.3767 -21.5564,-2.2557 -27.8772,-16.1814 -33.4001,-3.1032 -29.7769,-2.0509 -69.8618,-40.3241 -76.0333,-37.6851 0.9461,11.0006 -46.0011,-26.2432 -59.5764,-40.3746 -6.8791,-19.5067 -56.1184,-40.2205 -43.8133,-18.2777 17.8971,1.9015 19.6438,37.3962 8.0981,7.9573 -9.0931,4.0362 -49.051,-11.8739 -16.1166,5.3935 23.6088,-1.5258 29.3225,31.424 12.4066,10.0864 -1.8509,22.4786 27.1412,-1.6594 11.5633,19.3734 10.8111,-7.2549 23.8564,-2.0909 -3.2945,6.2636 -31.7444,1.8281 -82.9464,-10.6228 -65.5188,-52.9569 -59.7044,-0.5316 -113.5878,-27.1211 -166.5376,-50.7321 -66.5227,-12.6783 -130.9862,-39.6105 -181.1914,-86.0452 -55.8748,-21.5586 -51.411,-110.4455 -110.4974,-118.101 -15.6643,9.7913 -20.8956,10.0018 -3.8269,-3.5884 -19.3656,7.8303 -26.043,25.8845 -14.9159,-3.6376 30.2266,-33.366 58.8991,-85.5169 113.7742,-68.4278 47.3438,9.2815 89.4976,40.8367 138.6814,40.4868 40.758,-41.142 5.1184,-115.0166 10.0122,-168.9338 12.6197,-63.4674 53.8138,-117.5088 71.022,-179.9988 15.2513,-44.5351 51.5264,-78.2909 63.0957,-124.684 13.518,-38.5457 23.3907,-78.9069 44.4504,-114.3114 18.6934,35.673 -18.546,100.0441 -20.2423,113.2437 30.7194,-38.511 53.7117,-86.0643 97.0254,-112.1343 13.387,-17.8838 21.9541,-56.3846 24.252,-13.0234 5.8026,24.3051 -47.3795,95.0908 -5.4985,54.2856 20.9934,-4.8579 57.1907,-49.843 41.6549,-2.7459 -4.8281,13.2722 -12.6206,25.7883 -13.6715,40.1876"
         style="fill:#fcefd4;fill-opacity:1;fill-rule:nonzero;stroke:none;stroke-width:0.133333" />
    </g>
  </g>
</svg>
