<?xml version="1.0" encoding="UTF-8" standalone="no"?>
<!-- Created with Inkscape (http://www.inkscape.org/) -->

<svg
   width="269mm"
   height="269.42691mm"
   viewBox="0 0 269 269.42692"
   version="1.1"
   id="svg5"
   xmlns="http://www.w3.org/2000/svg"
   xmlns:svg="http://www.w3.org/2000/svg">
  <defs
     id="defs2" />
  <g
     id="layer1"
     transform="translate(19.943094,-182.60334)">
    <g
       id="group-R5"
       transform="matrix(0.26458333,0,0,0.26458333,-1671.5215,-197.60161)">
      <path
         id="path10"
         d="m 6965.2074,2286.0927 c -107.0735,49.3393 -224.7798,78.0261 -343.1346,69.9083 -57.8739,-0.3047 -114.195,-15.7742 -171.1243,-22.1663 -51.4589,4.3865 -109.0572,18.9153 -142.3257,61.2833 -15.3781,11.1351 3.7187,-47.2579 25.2742,-51.8328 57.8711,-19.2962 47.8039,-94.8008 106.1175,-113.1649 35.0435,-20.9253 72.4331,-37.4563 109.2729,-54.8809 7.2721,-49.2538 -28.7908,-92.7975 -59.3494,-127.4994 -46.9069,-59.687 -130.5276,-72.6377 -177.1702,-131.9604 -16.1854,-33.5203 -1.4861,-65.7636 -25.8457,-97.3958 -7.7464,-50.217 6.4989,-100.7112 7.5604,-151.7812 9.2588,-66.2138 32.112,-134.2058 81.7516,-181.2432 4.5168,21.1031 39.7384,-3.0134 34.3167,34.1347 1.9024,17.2847 -8.1952,36.7771 16.6983,29.8153 5.4251,22.9796 42.8218,0.6147 37.0506,40.0981 -1.6352,23.1652 51.5979,22.7353 37.6997,63.5587 -3.9514,9.3679 29.8521,14.7922 22.8747,39.8866 28.8236,23.1672 29.9823,64.9225 51.4283,86.5666 -8.9272,20.3777 34.0821,31.7768 7.145,49.7667 89.129,32.6538 168.3935,101.5203 200.4267,192.4 138.6796,-49.9948 289.2677,-82.0305 406.7754,-176.2641 20.5139,-24.1587 60.2704,-33.8777 42.5058,1.1695 -7.4668,38.6277 -39.9489,71.9714 -75.7744,93.8056 -36.0386,20.5903 -66.6425,47.1444 -104.6768,63.7956 -34.3641,-4.6934 -52.185,25.4087 -61.3583,51.7492 -12.3406,20.8013 -18.4286,47.705 -31.473,69.9152 -45.1949,32.8687 17.6737,62.3248 55.5015,52.1948 37.9343,6.8156 76.3464,9.2893 115.0182,7.6807 14.2381,12.2078 85.2883,-0.2704 52.7216,15.2335 17.8201,17.867 -54.2263,10.5881 -68.1646,26.2912 -12.5023,9.2973 61.4311,-11.5187 35.7779,4.0288 38.8674,-17.0863 -17.3927,13.2736 9.6667,8.2266 -34.2471,12.025 -76.4681,30.388 -112.6937,31.7675 -28.4761,-16.0761 -55.2265,-0.7684 -80.5997,13.1125"
         style="fill:#fcefd4;fill-opacity:1;fill-rule:nonzero;stroke:none;stroke-width:0.133333" />
    </g>
  </g>
</svg>
