<?xml version="1.0" encoding="UTF-8" standalone="no"?>
<!-- Created with Inkscape (http://www.inkscape.org/) -->

<svg
   width="269mm"
   height="269.42691mm"
   viewBox="0 0 269 269.42692"
   version="1.1"
   id="svg5"
   xmlns="http://www.w3.org/2000/svg"
   xmlns:svg="http://www.w3.org/2000/svg">
  <defs
     id="defs2" />
  <g
     id="layer1"
     transform="translate(19.943094,-182.60334)">
    <g
       id="group-R5"
       transform="matrix(0.26458333,0,0,0.26458333,-1671.5215,-197.60161)">
      <path
         id="path21"
         d="m 6846.3439,2237.7435 c 7.4856,-10.9625 9.0058,5.6793 0,0 z m 3.6,25.5067 c -20.1816,7.297 11.3168,-1.1507 1.4583,-1.8116 z m 253.32,-261.7867 c -27.976,-17.9911 -35.6679,-70.8409 -81.2677,-56.1122 -36.9493,1.5216 -63.5787,46.6434 -95.5844,42.5746 -13.7737,-37.5271 -39.7838,-69.5238 -50.2469,-108.8497 -16.7519,-46.3996 -15.5006,-100.8549 -55.9042,-136.1503 -7.2047,-5.8969 -20.849,-32.5119 -14.8368,-9.0223 -80.4839,-90.677 -144.1426,-205.8854 -259.5837,-257.0589 -36.0664,-14.5197 38.4985,37.8309 39.9131,62.0512 -3.9499,2.834 -68.2447,-35.2921 -77.6246,-18.947 13.3083,17.6942 59.4543,42.5934 53.9243,48.5053 -20.2968,-11.5527 -81.6788,-26.9979 -81.2282,-4.4728 9.5663,18.5864 87.2363,49.6971 35.9692,32.9656 -36.7557,-20.1425 -49.5991,14.5564 -14.0491,32.1678 10.4956,9.6314 45.7296,27.8086 11.8307,14.6421 -41.843,-21.939 -30.3838,29.5378 -3.165,38.7067 -8.2504,41.1505 31.356,71.7132 26.6273,111.2536 20.1933,24.8566 15.2107,57.7831 33.8236,82.1057 19.0317,24.656 14.0616,66.9505 47.5224,78.0673 -22.8075,31.1076 -71.549,-9.5385 -101.7064,-21.092 -35.1135,-17.7896 -61.6751,-50.3772 -100.9886,-57.003 -16.2195,-10.119 -33.3669,-25.4189 -12.1513,-1.1172 39.9185,18.7935 28.9146,65.4365 52.6697,97.3739 17.2735,14.85 20.5349,38.9767 51.0033,39.4116 -3.2438,39.1653 58.6771,15.9965 77.8352,36.7634 26.4298,22.6763 69.4429,18.7325 88.3899,49.5629 19.2508,18.4695 56.1026,42.9268 68.5756,46.3159 -49.8624,41.3577 -55.2455,120.369 -117.7418,149.2703 -22.6019,10.1343 -54.7757,35.6825 -13.858,34.2751 -15.4321,15.6556 -71.9693,60.8371 -21.7259,66.8474 27.9548,-23.62 60.0893,-42.7101 75.605,-76.515 39.5379,-12.9969 57.485,-63.4455 101.5533,-54.235 20.3994,3.7562 43.7299,-29.0897 58.22,-11.4316 -14.6271,1.4868 9.63,21.2548 1.2934,23.21 11.4173,8.6104 -21.3981,-3.6678 5.3528,8.7596 37.7288,2.1027 55.1773,-37.3519 36.5805,-64.7963 49.2078,-16.9306 91.3474,-49.6659 113.0882,-96.9062 30.4508,-32.1246 38.7327,-79.6151 72.2918,-108.6871 13.3592,-23.6507 66.6758,16.6978 49.5933,-12.4334 z"
         style="fill:#fcefd4;fill-opacity:1;fill-rule:nonzero;stroke:none;stroke-width:0.133333" />
    </g>
  </g>
</svg>
