<?xml version="1.0" encoding="UTF-8" standalone="no"?>
<!-- Created with Inkscape (http://www.inkscape.org/) -->

<svg
   width="269mm"
   height="269.42691mm"
   viewBox="0 0 269 269.42692"
   version="1.1"
   id="svg5"
   xmlns="http://www.w3.org/2000/svg"
   xmlns:svg="http://www.w3.org/2000/svg">
  <defs
     id="defs2" />
  <g
     id="layer1"
     transform="translate(19.943094,-182.60334)">
    <g
       id="group-R5"
       transform="matrix(0.26458333,0,0,0.26458333,-1671.5215,-197.60161)">
      <path
         id="path7"
         d="m 6834.4382,2128.3925 c -39.8171,30.7999 -69.527,-21.4856 -98.9884,-41.8019 -17.8052,-14.1406 -31.9194,-22.3115 -3.1954,-30.0497 17.6298,6.1746 72.5462,49.5287 102.1838,71.8516 z m 10.6239,24.4135 c 21.9853,-4.0071 85.1268,44.6449 32.6127,33.9815 -11.7417,-5.7093 -75.0706,-21.7668 -32.6127,-33.9815 z m 369.2808,-408.4601 c 26.7653,-107.44 -61.8311,-238.5514 -178.7784,-225.9062 -39.7302,2.4839 -76.876,21.8363 -117.1787,15.9876 -83.0986,2.2799 -163.0189,42.6875 -223.7811,97.869 -47.4759,37.5151 -55.2903,104.4158 -111.2122,131.9008 -52.5619,41.353 -102.5629,87.0099 -141.9979,141.3455 52.4642,22.1559 -27.406,74.1199 -48.0764,98.7249 -40.4571,50.8039 -99.1001,80.6155 -145.819,124.7317 -33.4706,31.6371 37.0292,-9.5098 52.5214,-15.8198 21.7499,-7.577 84.9812,-60.019 45.7906,-14.8836 -13.1593,20.9778 -70.2873,59.7614 -14.4044,34.7524 21.0576,-6.3916 45.9594,-15.0365 46.1859,-21.5915 33.6545,-4.0492 81.1233,-50.3496 96.9031,-46.0251 -13.0921,49.798 -42.5919,93.4047 -63.7868,139.9351 -31.2995,46.8976 -57.1529,96.8664 -84.9062,145.6957 -14.4751,14.8187 -29.7465,56.6112 2.0033,28.7955 20.917,-21.9617 -4.0207,8.5286 18.7128,-10.1129 19.5684,-10.8892 26.4447,-39.2273 32.3749,-30.6687 36.2498,-36.6483 73.2287,-74.9558 97.7603,-120.771 2.8387,-30.0764 62.3248,-44.1045 86.7142,-77.204 25.5701,-21.6192 75.8325,-68.0102 89.2257,-54.8963 43.5615,-15.241 100.4147,35.4226 112.2337,75.2381 -19.5034,19.8967 -84.9105,-14.3413 -72.9538,38.2753 3.8173,-22.8444 36.1504,-25.3603 39.905,-3.0032 32.5007,-7.2017 75.418,-24.6339 88.2502,14.9144 19.5259,20.2907 67.3495,26.4497 66.9536,29.6918 -21.4858,-32.7964 1.2384,-19.4488 25.4266,-14.0497 12.951,-2.8913 -40.0647,-30.5972 1.926,-17.0121 33.1135,9.7453 -9.6685,72.634 23.255,30.7528 -5.0891,-33.0687 12.7582,-24.0439 34.6697,-7.6831 -15.5535,-24.3838 -45.2986,-31.1241 -46.1965,-66.5873 -31.0841,-19.8965 10.9466,-45.8476 12.1228,-12.3343 26.746,-40.4689 -24.9928,-35.1555 -48.1513,-24.6512 -39.3572,-26.5536 -81.4904,-53.5948 -119.4023,-83.9145 106.0828,-47.3163 200.3704,-123.3921 262.4574,-222.2351 31.2525,-38.4327 105.5529,-53.5543 137.5812,-10.0181 28.3395,35.8628 82.9959,71.604 57.0997,-1.7144 -5.3647,-22.2864 -13.228,-44.3537 -13.4281,-67.5285 z"
         style="fill:#fcefd4;fill-opacity:1;fill-rule:nonzero;stroke:none;stroke-width:0.125133" />
    </g>
  </g>
</svg>
