<?xml version="1.0" encoding="UTF-8" standalone="no"?>
<!-- Created with Inkscape (http://www.inkscape.org/) -->

<svg
   width="285.17496mm"
   height="203.68207mm"
   viewBox="0 0 285.17496 203.68207"
   version="1.1"
   id="svg5"
   xmlns="http://www.w3.org/2000/svg"
   xmlns:svg="http://www.w3.org/2000/svg">
  <defs
     id="defs2" />
  <g
     id="layer1"
     transform="translate(36.480756,-159.04754)">
    <g
       id="group-R5"
       transform="matrix(0.26458333,0,0,0.26458333,-1671.5215,-197.60161)">
      <path
         id="path19"
         d="m 6584.4817,1960.694 c -34.0134,16.3546 -44.5659,72.5517 -88.5184,57.5167 -37.7869,-19.0401 28.8612,-63.245 44.1777,-67.7796 0.3673,12.123 88.6162,-26.7766 44.3407,10.2629 z m 649.0666,-317.32 c 54.6391,-4.8826 -32.5371,-23.6428 -52.1086,-24.5518 -87.7447,-9.1891 -176.1509,3.7553 -263.9431,-6.2365 -57.1912,8.9465 -113.7948,-10.0452 -150.7374,-56.8352 -64.7512,-63.0892 -148.4444,-105.2563 -236.3842,-124.8165 21.2067,-12.0802 31.523,-9.1706 3.5683,-23.0661 -69.2291,-41.5503 -159.106,-84.4366 -237.9176,-42.6644 -41.0894,13.9143 -41.2996,74.1946 -91.291,44.726 -63.0742,8.8016 31.6718,26.8948 37.611,51.8889 -2.4815,29.1262 -12.4453,96.6091 2.7406,91.971 -6.9376,25.5383 -16.3724,97.8902 -7.1746,92.1479 5.6385,4.5943 -0.5349,65.9742 12.0225,91.4697 22.6864,81.0293 82.616,157.0713 166.3342,179.4203 -2.6053,-9.9859 57.0865,44.2343 35.7066,8.4534 21.3179,23.7159 81.8595,7.7532 35.7865,40.9461 -28.0612,31.9682 -65.1831,54.6857 -108.2866,56.3908 -28.8622,-10.0016 -87.0613,21.9709 -75.8134,28.4231 32.7414,-14.3086 81.8351,-3.1676 121.2783,-18.0142 24.5972,-3.1411 117.8925,-4.3532 59.4394,20.9232 -26.9567,10.6245 -83.7804,23.3803 -69.1242,63.8376 -1.2874,-36.0944 63.9667,-48.5373 81.5519,-40.9891 12.0911,41.2263 1.1754,-24.8766 32.8996,-23.8298 16.013,-22.6192 75.6457,0.7494 57.6952,-36.1544 29.2386,9.1938 58.7807,-1.3366 81.3667,8.4983 19.8147,44.8138 13.0445,-42.3546 -24.4733,-25.1153 -23.7529,5.2666 -87.6897,0.7878 -43.156,-30.041 36.675,-33.2038 81.7002,-95.6826 124.2776,-90.932 17.2831,5.0083 64.3194,-62.5885 56.6653,-70.1586 34.5597,-15.8645 50.9125,-56.6287 90.2697,-26.4026 47.3721,21.0662 3.8723,-21.1646 -18.7395,-26.2063 6.9954,-9.7379 64.6418,15.5451 90.3011,23.5275 25.8709,6.5807 83.3305,36.9361 90.0701,22.5231 -42.7243,-26.3101 -70.9954,-69.112 -114.8484,-94.0264 35.4412,-30.7548 75.2021,-53.4928 124.9967,-45.3105 62.4338,1.3853 125.9247,18.525 187.6966,2.0705 -2.1342,-20.0601 -78.2359,-13.8924 -23.57,-22.5717 8.4322,-0.5474 16.8881,-0.043 25.29,0.705 z"
         style="fill:#fcefd4;fill-opacity:1;fill-rule:nonzero;stroke:none;stroke-width:0.133333" />
    </g>
  </g>
</svg>
