<?xml version="1.0" encoding="UTF-8" standalone="no"?>
<!-- Created with Inkscape (http://www.inkscape.org/) -->

<svg
   width="309.19263mm"
   height="239.0123mm"
   viewBox="0 0 309.19263 239.0123"
   version="1.1"
   id="svg5"
   xmlns="http://www.w3.org/2000/svg"
   xmlns:svg="http://www.w3.org/2000/svg">
  <defs
     id="defs2" />
  <g
     id="layer1"
     transform="translate(32.469214,-133.86064)">
    <g
       id="group-R5"
       transform="matrix(0.26458333,0,0,0.26458333,-1671.5215,-197.60161)">
      <path
         id="path6"
         d="m 7012.2125,1927.8577 c 17.9244,-13.543 13.3158,49.8848 -0.1695,13.3183 l 0.4101,-7.3498 z m -39.384,1.32 c -44.1341,27.636 -78.0533,95.1699 -136.8212,83.6404 -29.807,-20.103 -77.6351,-100.2951 -8.0343,-81.2638 46.019,-5.2894 88.3732,-23.1459 130.9315,-26.4573 6.3298,6.6604 14.087,13.9883 13.924,24.0807 z m -102.5094,120.2133 c -18.9219,24.7022 -5.5706,-25.5346 0,0 z m -42.948,23.1333 c -2.8534,28.7608 -18.6643,-6.4326 0,0 z m -15.8266,11.48 c 5.4733,-13.1272 9.5875,16.8347 0,0 z m 527.8213,-599.9599 c -44.1789,-19.0586 -58.6276,-62.2178 -49.5791,-107.5479 1.3973,-37.2086 -7.5653,-23.7914 -17.1044,-61.7971 -14.9613,-38.7653 -57.0433,-54.4603 -107.8112,-60.0055 -11.9362,7.1341 -80.5964,-9.7981 -90.8046,3.9321 -32.634,-0.3134 -90.6095,26.2484 -96.678,40.4417 15.1928,-0.4006 -50.3303,24.4178 -15.6147,20.7367 -17.9754,2.6691 -32.8545,20.748 -24.428,19.5449 -79.3119,46.7971 -163.4671,92.9094 -215.7556,171.7658 -25.9714,41.8622 -62.7911,74.2115 -103.6469,101.0495 -41.8372,31.9697 -67.7846,77.1038 -101.7241,115.9197 -19.0139,58.1394 -81.0607,87.128 -130.656,115.9957 -46.2614,25.0621 -101.3164,53.5391 -123.2385,97.665 -22.0205,11.832 -103.7347,62.2712 -36.0195,39.2474 23.6377,-7.3173 54.3642,-24.9759 18.6071,0.3894 23.9442,20.4562 75.1867,-35.1061 109.384,-45.3063 60.4417,-29.6084 120.1697,-66.3286 189.156,-69.6878 49.3523,-14.1041 110.4344,1.4838 145.1132,16.4733 36.4012,-5.7711 74.4306,48.9098 96.8874,91.6483 21.6839,36.9967 41.082,73.8541 -3.5993,102.1196 -14.405,21.8939 -89.9578,75.2425 -28.5598,74.0288 20.4919,-18.038 42.6187,-87.6989 75.7664,-46.6363 23.1635,-4.4856 19.871,-17.272 46.3836,-0.3337 26.0885,-6.0808 19.8035,-15.1343 -4.6151,-7.9519 -22.7925,-15.2615 -7.8864,-41.6831 15.9081,-39.7648 -11.5554,-33.9598 36.6315,-44.1243 55.2615,-74.3158 29.2791,-23.4714 48.4715,-43.5317 66.4688,-10.1842 21.2809,23.9244 54.2728,-25.4255 14.92,-6.8933 36.9061,-8.1146 -6.9363,-57.145 26.5787,-62.16 32.8694,-44.8633 97.5201,-42.9958 134.2467,-78.6636 37.9821,-43.6684 -28.9038,-27.9086 -42.6839,-0.7152 -48.0398,21.5918 -92.7069,60.3009 -144.9615,57.2721 44.5216,-8.7345 62.8672,-21.6078 94.8712,-62.9185 40.2405,-31.818 67.6162,-75.0841 76.1775,-108.9194 18.7772,-35.8424 26.5836,-82.2115 30.1131,-109.0021 0.5795,-56.3169 51.9777,-133.994 114.5009,-104.3043 24.851,-0.5084 71.8491,47.3973 39.7243,1.3832 l -4.3096,-4.4174 z"
         style="fill:#fcefd4;fill-opacity:1;fill-rule:nonzero;stroke:none;stroke-width:0.133333" />
    </g>
  </g>
</svg>
