<?xml version="1.0" encoding="UTF-8" standalone="no"?>
<!-- Created with Inkscape (http://www.inkscape.org/) -->

<svg
   width="269mm"
   height="269.42691mm"
   viewBox="0 0 269 269.42692"
   version="1.1"
   id="svg5"
   xmlns="http://www.w3.org/2000/svg"
   xmlns:svg="http://www.w3.org/2000/svg">
  <defs
     id="defs2" />
  <g
     id="layer1"
     transform="translate(19.943094,-182.60334)">
    <g
       id="group-R5"
       transform="matrix(0.26458333,0,0,0.26458333,-1671.5215,-197.60161)">
      <path
         id="path16"
         d="m 7138.1707,2398.931 c -45.381,-22.6345 58.9354,3.6111 39.6853,-9.778 -19.4235,1.3918 -78.7551,-18.0436 -29.5043,-13.4749 23.2526,-1.1473 51.9487,-20.0737 13.0407,-10.2655 -56.4728,6.4048 -107.7423,-26.5208 -144.2503,-66.5004 -55.5268,-45.5767 -102.1781,-100.8263 -157.6003,-146.5974 -29.9149,-30.5391 -64.0767,-57.4287 -91.1752,-90.341 -6.3986,-35.4901 50.3044,-47.1439 69.5197,-69.1058 21.7199,-2.707 57.8604,-21.8929 16.5344,-24.4453 -45.2471,-13.1182 -93.1686,-36.0016 -141.6798,-10.077 -37.6852,8.1001 -55.3417,-46.4659 -72.221,-73.0453 -18.3805,-42.7862 -31.9534,-88.8465 -62.9839,-124.6922 -20.1536,-38.1061 -34.3146,-79.0971 -56.0242,-116.4312 -18.9696,-45.0668 -20.9371,-95.5922 -13.7944,-143.4593 -24.745,20.1273 -12.4768,85.1962 -14.9174,84.8355 -16.1115,-28.5368 -4.7263,-97.341 -29.9715,-101.7213 -17.4751,17.9753 8.7417,100.2415 -10.6259,45.6891 -2.5477,-23.1181 -26.6264,-77.1971 -28.6973,-26.5413 -5.987,20.5531 28.9073,84.1128 3.9237,36.2215 -8.4747,-20.3998 -33.4811,-70.6824 -32.8316,-22.0286 6.6232,39.713 4.2368,12.3435 -15.2894,-5.2113 -23.3309,10.3791 20.3023,68.2644 -12.6104,44.7114 -18.8098,18.0638 25.3485,63.2157 -9.0792,47.1104 -13.5599,22.3697 4.125,40.8134 -9.8456,59.5919 -1.451,19.1307 26.2467,28.2097 0.5046,30.756 -23.3699,35.9232 53.9295,48.1573 13.458,60.7616 -9.5948,28.063 3.9476,62.7365 11.7412,83.0182 -8.1367,34.5337 40.8745,38.0354 29.7272,70.4827 2.2452,32.9289 25.0539,46.9579 37.9152,75.6596 16.8225,1.041 9.2667,56.1011 20.5984,14.9979 30.3588,-4.1886 6.169,55.0799 41.76,37.2266 2.4075,-29.6935 51.528,-7.7904 23.9067,10.9067 16.7541,-2.9986 -32.1965,26.9665 -41.3067,38.0667 -36.7231,32.5323 -91.2852,32.7494 -128.0131,63.7575 -4.3727,36.2601 52.1195,63.2171 72.5766,24.177 38.9253,-20.3683 80.2011,-46.8892 125.8666,-44.1303 15.2257,-7.2331 36.295,1.2904 15.8766,16.6624 28.2718,-9.3754 13.1167,26.8825 46.04,28.9867 -68.8802,-0.7241 36.967,39.6477 3.2667,32.5036 3.6581,20.691 25.1673,27.6464 32.6035,45.7574 26.7825,-1.3041 27.3142,38.1199 58.086,44.7374 28.8351,28.8651 73.1545,33.6456 106.3337,55.5433 28.9236,4.7792 52.9882,41.3504 76.0398,29.2793 23.9359,18.3384 49.1952,-2.0528 70.4986,26.2953 27.6368,27.367 25.9077,-29.868 40.4558,-1.9532 11.3224,13.6358 52.6933,27.4039 39.7825,-1.5898 10.6443,22.3475 89.6167,45.6855 47.5019,9.9576 -14.4953,-15.6729 59.4669,33.641 28.3265,-2.4176 -24.4706,-30.3455 35.8752,18.1615 52.665,-4.14 -12.6739,0.9409 -24.8428,-3.9532 -35.8134,-9.7466 z"
         style="fill:#fcefd4;fill-opacity:1;fill-rule:nonzero;stroke:none;stroke-width:0.133333" />
    </g>
  </g>
</svg>
