<?xml version="1.0" encoding="UTF-8" standalone="no"?>
<!-- Created with Inkscape (http://www.inkscape.org/) -->

<svg
   width="261.93909mm"
   height="262.66367mm"
   viewBox="0 0 261.93909 262.66367"
   version="1.1"
   id="svg5"
   xmlns="http://www.w3.org/2000/svg"
   xmlns:svg="http://www.w3.org/2000/svg">
  <defs
     id="defs2" />
  <g
     id="layer1"
     transform="translate(-2.3166508,-61.38138)">
    <g
       id="group-R5"
       transform="matrix(0.26458333,0,0,0.26458333,-1671.5215,-197.60161)">
      <path
         id="path14"
         d="m 6637.1175,1402.5 c 36.8918,17.5755 39.0772,100.5921 45.8663,91.1041 8.2114,34.1212 28.2478,61.7808 -14.6751,81.0747 -38.9806,26.583 -86.661,33.7944 -131.8312,43.4212 24.1189,6.7556 61.8594,-2.9793 18.1292,10.6266 -81.3115,31.9288 -147.0834,93.0601 -228.2892,125.2134 34.2409,15.8566 88.6566,-34.83 97.4435,1.609 32.1377,-3.1408 40.2457,27.6933 72.1565,18.4043 13.5654,39.2433 57.1735,8.2064 79.4583,36.1567 33.5957,-5.039 64.3511,25.2183 93.6739,10.8027 33.407,17.6337 51.1056,-10.1386 83.5465,5.8825 15.8558,-22.158 54.0754,19.044 61.9212,-18.0552 29.0687,23.7204 39.1481,-19.1226 61.417,-7.0231 22.6691,-13.0555 19.8732,-26.8663 45.8763,-27.6869 -2.7401,-31.4751 37.5448,-27.2898 44.2628,-55.7108 7.651,-20.2052 5.1854,-25.3693 33.4762,-16.8067 21.1601,17.9448 17.0875,70.7502 36.0472,100.5788 20.6687,45.9374 25.2747,96.0893 31.1538,145.3371 7.9722,50.9642 56.5944,-0.7525 43.1641,-9.0546 1.0764,30.1888 42.3583,41.1222 38.4026,3.7395 26.9924,43.9044 27.2997,-60.2524 46.9178,-5.4137 33.3174,-0.6716 4.7461,-63.9184 35.4689,-41.7469 25.9483,-24.4076 -37.3561,-100.6271 6.4961,-55.1116 10.3102,13.356 49.2552,29.0041 29.0906,-1.4878 50.0559,14.2443 -22.158,-40.5696 18.6792,-26.7096 54.9217,-4.4363 -5.0414,-31.6446 -4.245,-39.763 30.9749,3.9569 49.6778,-31.6788 11.2591,-39.3807 12.8989,-16.3213 25.4834,-57.7526 -11.8133,-54.04 48.0242,-41.7995 -56.6755,-32.5214 -79.873,-42.8906 -41.8828,-10.6083 -89.8432,-12.9561 -124.5553,-40.4608 0.5361,-26.1329 43.4177,-24.966 24.2416,-62.3953 32.7966,29.1142 39.4807,-26.8665 55.8287,-44.0095 -13.6363,-21.2517 29.8999,-32.3797 6.598,-59.5238 39.3382,-21.2657 -4.8766,-50.9255 14.2783,-75.8504 -1.6418,-24.5687 -51.1787,-18.0652 -8.0183,-26.1585 28.5145,-19.1991 10.6755,-56.1202 17.5987,-83.9688 -34.5525,-7.441 21.5638,-54.7969 -29.4574,-55.5766 2.8002,-5.0709 18.8737,-57.3473 -23.1412,-39.4711 -52.7878,24.4579 40.7618,-58.3503 -1.0175,-63.908 -15.028,8.2973 -53.3481,36.9329 -27.6654,2.1518 12.0413,-24.1076 36.0502,-88.08096 -0.4519,-40.3605 -18.5838,18.123 -72.9801,70.1186 -41.7051,15.9543 9.0968,-20.9151 30.9949,-95.4327 0.3473,-44.7959 -14.5344,16.2605 -53.9767,62.0899 -54.0802,58.8246 14.0229,-24.7389 19.4417,-83.02827 8.2225,-92.00503 -9.6721,18.25593 -34.1098,81.71963 -34.5023,67.55333 6.71,-28.8825 -2.4842,-103.96507 -19.7438,-40.5971 -20.2006,54.4112 -41.0888,108.4902 -57.6807,164.0095 -13.998,10.5395 -23.1328,80.9165 -26.7564,40.8518 -21.7427,23.267 -36.2925,79.6162 -3.5316,96.2679 -3.7811,44.2289 -54.207,90.879 -91.8463,43.4799 -42.3151,-32.7114 -112.6286,-31.8286 -141.2398,18.5877 -1.5368,5.8674 -23.4431,34.5074 -4.9022,28.3311 z"
         style="fill:#fcefd4;fill-opacity:1;fill-rule:nonzero;stroke:none;stroke-width:0.133333" />
    </g>
  </g>
</svg>
